<?xml version="1.0" standalone="no"?>
<!DOCTYPE svg PUBLIC "-//W3C//DTD SVG 20010904//EN"
 "http://www.w3.org/TR/2001/REC-SVG-20010904/DTD/svg10.dtd">
<svg version="1.0" xmlns="http://www.w3.org/2000/svg"
 width="200.000000pt" height="200.000000pt" viewBox="0 0 200.000000 200.000000"
 preserveAspectRatio="xMidYMid meet">

<g transform="translate(0.000000,200.000000) scale(0.100000,-0.100000)"
fill="#000000" stroke="none">
<path d="M891 1635 c-172 -49 -301 -191 -319 -355 -15 -137 26 -317 108 -466
l39 -71 -52 -12 c-108 -25 -165 -79 -193 -184 -18 -66 -10 -108 28 -144 29
-28 30 -28 174 -31 l144 -3 0 206 c0 169 3 216 17 255 16 46 16 48 -5 77 -31
44 -62 120 -62 154 0 16 11 57 24 93 54 144 141 232 246 250 34 6 36 5 60 -46
31 -66 105 -121 150 -112 26 6 29 4 35 -29 8 -43 -9 -102 -36 -120 -10 -8 -28
-43 -39 -79 -11 -35 -33 -84 -50 -107 l-31 -42 21 -46 c18 -41 20 -66 20 -249
l0 -204 133 0 c151 0 187 13 213 75 23 56 -5 157 -59 213 -40 42 -72 59 -137
73 -28 6 -49 14 -48 17 103 193 148 335 148 467 0 101 -19 166 -70 242 -97
145 -298 223 -459 178z"/>
</g>
</svg>
