<?xml version="1.0"?><svg fill="#386A3f" xmlns="http://www.w3.org/2000/svg"  viewBox="0 0 30 30" width="50px" height="50px">    <path d="M 13 3 C 12.448 3 12 3.448 12 4 L 12 5 L 4 5 C 2.895 5 2 5.895 2 7 L 2 23 C 2 24.105 2.895 25 4 25 L 26 25 C 27.105 25 28 24.105 28 23 L 28 7 C 28 5.895 27.105 5 26 5 L 18 5 L 18 4 C 18 3.448 17.552 3 17 3 L 13 3 z M 14 10 C 15.105 10 16 10.895 16 12 C 16 13.105 15.105 14 14 14 C 12.895 14 12 13.105 12 12 C 12 10.895 12.895 10 14 10 z M 21.667969 13 L 25 16.332031 L 19.332031 22 L 16 18.667969 L 21.667969 13 z"/></svg>